<svg width="124" height="124" viewBox="0 0 124 124" fill="none" xmlns="http://www.w3.org/2000/svg">
<path opacity="0.8" d="M15.5 25C22.4036 25 28 19.4036 28 12.5C28 5.59644 22.4036 0 15.5 0C8.59644 0 3 5.59644 3 12.5C3 19.4036 8.59644 25 15.5 25Z" fill="#E67E22"/>
<path opacity="0.8" d="M68.5 19C73.7467 19 78 14.7467 78 9.5C78 4.25329 73.7467 0 68.5 0C63.2533 0 59 4.25329 59 9.5C59 14.7467 63.2533 19 68.5 19Z" fill="#85C1E9"/>
<path opacity="0.8" d="M91 29C94.3137 29 97 26.3137 97 23C97 19.6863 94.3137 17 91 17C87.6863 17 85 19.6863 85 23C85 26.3137 87.6863 29 91 29Z" fill="#E67E22"/>
<path fill-rule="evenodd" clip-rule="evenodd" d="M26 31H14C9 31 9 31 9 34.8764V93.2683C9 96.9861 9 100 9 100H31C31 100 31 96.9861 31 93.2683V34.8764C31 31 31 31 26 31Z" fill="#5D6D7E"/>
<path d="M50 12H39C34 12 34 12 34 16.0741V93.4815V100H55V93.4815V16.0741C55 12 55 12 50 12Z" fill="#E67E22"/>
<path d="M75 24H63C58 24 58 24 58 27.9583V92V100H80V92V27.9583C80 24 80 24 75 24Z" fill="#85C1E9"/>
<path d="M93.0725 38.2858L86.6829 40.1835C82.1189 41.5391 82.1189 41.5391 83.2506 45.3024L98.8683 97.2367C100 101 100 101 104.564 99.6445L110.954 97.7468C115.518 96.3913 115.518 96.3913 114.386 92.6279L98.7682 40.6937C97.6365 36.9303 97.6365 36.9303 93.0725 38.2858Z" fill="#5D6D7E"/>
<path d="M119.694 100H4.30556C0 100 0 100 0 105V119C0 124 0 124 4.30556 124H119.694C124 124 124 124 124 119V105C124 100 124 100 119.694 100Z" fill="#5D6D7E"/>
<path d="M46 110H10C8.89543 110 8 110.895 8 112C8 113.105 8.89543 114 10 114H46C47.1046 114 48 113.105 48 112C48 110.895 47.1046 110 46 110Z" fill="#E67E22"/>
<path d="M113.432 104H69.579C65.0109 104 65.0109 104 65.0109 108.444V115.556C65.0109 120 64.5541 120 69.5421 120H113.432C118 120 118 120 118 115.556V108.444C118 104 118 104 113.432 104Z" fill="#F9F9F9"/>
<path d="M70.9375 106H68.3125C67.5876 106 67 106.576 67 107.286C67 107.996 67.5876 108.571 68.3125 108.571H70.9375C71.6624 108.571 72.25 107.996 72.25 107.286C72.25 106.576 71.6624 106 70.9375 106Z" fill="#5D6D7E"/>
<path d="M69.625 107.286C69.625 106.576 69.0374 106 68.3125 106C67.5876 106 67 106.576 67 107.286V116.714C67 117.424 67.5876 118 68.3125 118C69.0374 118 69.625 117.424 69.625 116.714V107.286Z" fill="#5D6D7E"/>
<path d="M70.9375 115.429H68.3125C67.5876 115.429 67 116.004 67 116.714C67 117.425 67.5876 118 68.3125 118H70.9375C71.6624 118 72.25 117.425 72.25 116.714C72.25 116.004 71.6624 115.429 70.9375 115.429Z" fill="#5D6D7E"/>
<path d="M78.375 106H75.75V118H78.375V106Z" fill="#5D6D7E"/>
<path d="M84.5 106H80.125V118H84.5V106Z" fill="#5D6D7E"/>
<path d="M88 106H86.25V118H88V106Z" fill="#5D6D7E"/>
<path d="M95 106H89.75V118H95V106Z" fill="#5D6D7E"/>
<path d="M99.375 106H96.75V118H99.375V106Z" fill="#5D6D7E"/>
<path d="M105.5 106H101.125V118H105.5V106Z" fill="#5D6D7E"/>
<path d="M109 106H107.25V118H109V106Z" fill="#5D6D7E"/>
<path d="M114.688 106H112.062C111.338 106 110.75 106.576 110.75 107.286C110.75 107.996 111.338 108.571 112.062 108.571H114.688C115.412 108.571 116 107.996 116 107.286C116 106.576 115.412 106 114.688 106Z" fill="#5D6D7E"/>
<path d="M116 107.286C116 106.576 115.412 106 114.688 106C113.963 106 113.375 106.576 113.375 107.286V116.714C113.375 117.424 113.963 118 114.688 118C115.412 118 116 117.424 116 116.714V107.286Z" fill="#5D6D7E"/>
<path d="M114.688 115.429H112.062C111.338 115.429 110.75 116.004 110.75 116.714C110.75 117.425 111.338 118 112.062 118H114.688C115.412 118 116 117.425 116 116.714C116 116.004 115.412 115.429 114.688 115.429Z" fill="#5D6D7E"/>
</svg>
